<?xml version="1.0" standalone="no"?>
<!DOCTYPE svg PUBLIC "-//W3C//DTD SVG 20010904//EN"
 "http://www.w3.org/TR/2001/REC-SVG-20010904/DTD/svg10.dtd">
<svg version="1.0" xmlns="http://www.w3.org/2000/svg"
 width="1024.000000pt" height="1024.000000pt" viewBox="0 0 1024.000000 1024.000000"
 preserveAspectRatio="xMidYMid meet">
<metadata>
Created by potrace 1.11, written by Peter Selinger 2001-2013
</metadata>
<g transform="translate(0.000000,1024.000000) scale(0.100000,-0.100000)"
fill="#000000" stroke="none">
<path d="M2815 10192 c-1 -1 -116 -3 -256 -3 -156 0 -257 -4 -265 -10 -8 -7
-14 -7 -19 1 -3 6 -10 8 -15 5 -11 -7 -83 -15 -152 -18 -31 -1 -54 -6 -50 -11
3 -5 -2 -7 -11 -3 -10 3 -17 3 -17 -2 0 -4 -10 -7 -22 -6 -13 1 -31 -2 -40 -7
-10 -4 -32 -10 -50 -11 -18 -2 -39 -6 -46 -11 -6 -4 -16 -4 -22 -1 -5 3 -10 1
-10 -5 0 -6 -4 -9 -9 -6 -5 3 -25 -1 -45 -9 -20 -8 -38 -15 -41 -15 -8 -1 -29
-7 -65 -19 -19 -7 -39 -13 -45 -14 -5 -2 -14 -5 -20 -8 -5 -4 -23 -9 -38 -13
-17 -4 -25 -11 -21 -18 4 -6 3 -8 -3 -5 -6 4 -28 -1 -49 -10 -22 -9 -46 -18
-54 -19 -8 -2 -16 -8 -18 -13 -2 -6 -12 -11 -22 -11 -10 0 -25 -7 -34 -15 -8
-9 -19 -16 -23 -17 -22 -2 -53 -19 -53 -28 0 -6 -5 -8 -10 -5 -5 3 -10 1 -10
-5 0 -6 -4 -8 -10 -5 -5 3 -10 1 -10 -5 0 -6 -4 -9 -9 -6 -4 3 -19 -3 -31 -14
-13 -11 -29 -20 -37 -20 -7 0 -13 -4 -13 -10 0 -5 -7 -10 -15 -10 -8 0 -15 -4
-15 -10 0 -5 -5 -10 -11 -10 -6 0 -17 -6 -24 -12 -33 -30 -45 -38 -55 -38 -5
0 -10 -5 -10 -11 0 -5 -4 -8 -9 -4 -6 3 -15 -4 -21 -15 -6 -11 -17 -20 -25
-20 -8 0 -15 -3 -15 -7 0 -5 -18 -21 -40 -37 -21 -16 -36 -34 -33 -40 3 -6 3
-8 -2 -4 -11 10 -76 -42 -68 -55 3 -6 1 -7 -6 -3 -6 4 -14 0 -17 -8 -3 -9 -12
-16 -20 -16 -8 0 -13 -3 -12 -7 1 -5 -26 -36 -61 -70 -35 -35 -61 -63 -57 -63
3 0 -3 -9 -14 -20 -11 -11 -25 -20 -31 -20 -5 0 -8 -4 -4 -9 3 -6 -3 -14 -12
-20 -10 -6 -14 -11 -10 -11 4 0 -3 -11 -17 -24 -15 -13 -26 -28 -26 -35 0 -6
-4 -11 -10 -11 -5 0 -10 -7 -10 -16 0 -8 -4 -13 -9 -9 -5 3 -13 -5 -17 -17 -3
-12 -17 -33 -30 -47 -13 -14 -24 -31 -24 -38 0 -7 -4 -13 -10 -13 -5 0 -12
-11 -16 -25 -3 -14 -12 -25 -20 -25 -7 0 -11 -8 -9 -19 2 -11 -3 -22 -11 -25
-9 -3 -12 -10 -9 -16 3 -5 3 -10 -2 -10 -12 0 -44 -60 -37 -71 3 -5 -2 -9 -10
-9 -9 0 -15 -3 -15 -7 3 -20 -2 -34 -11 -28 -5 3 -7 0 -4 -8 3 -8 0 -18 -5
-22 -6 -3 -9 -11 -6 -16 4 -5 1 -9 -5 -9 -7 0 -10 -6 -7 -14 3 -8 -1 -17 -9
-20 -9 -3 -13 -10 -10 -15 4 -5 0 -16 -8 -24 -8 -8 -12 -17 -9 -21 4 -3 0 -6
-8 -6 -11 0 -11 -2 1 -10 11 -7 11 -10 2 -10 -7 0 -10 -4 -7 -10 3 -5 1 -10
-5 -10 -6 0 -8 -5 -4 -11 3 -6 2 -14 -4 -18 -7 -4 -13 -17 -15 -30 -2 -12 -8
-26 -13 -29 -5 -4 -10 -16 -12 -27 -4 -29 -7 -39 -15 -52 -5 -7 -5 -17 -2 -23
3 -5 0 -10 -7 -10 -11 0 -10 -2 0 -9 11 -7 11 -9 -2 -14 -8 -3 -15 -14 -15
-24 -1 -39 -5 -53 -14 -53 -5 0 -4 -6 2 -14 8 -10 9 -16 1 -21 -6 -3 -8 -10
-5 -15 3 -4 -2 -11 -11 -14 -13 -5 -14 -9 -4 -21 7 -8 8 -15 3 -15 -5 0 -9
-13 -8 -30 1 -16 -2 -30 -6 -30 -4 0 -5 -10 -1 -22 3 -12 1 -19 -4 -15 -6 3
-10 -11 -9 -34 1 -22 -2 -42 -5 -44 -4 -2 -5 -20 -4 -39 2 -21 -1 -36 -8 -36
-7 0 -6 -5 2 -15 7 -8 8 -15 3 -15 -5 0 -8 -13 -7 -30 1 -17 -3 -30 -9 -30 -8
0 -8 -3 -2 -8 11 -8 14 -92 4 -92 -6 0 -5 -22 1 -40 3 -7 1 -48 -3 -88 -2 -18
1 -36 5 -38 5 -3 4 -12 -2 -19 -7 -8 -7 -15 -1 -19 10 -7 9 -25 -3 -44 -4 -7
-4 -18 1 -25 8 -11 8 -20 0 -95 -2 -18 1 -36 5 -38 5 -3 4 -12 -2 -19 -7 -8
-7 -15 -1 -19 10 -7 9 -25 -3 -44 -4 -7 -4 -18 1 -25 8 -11 8 -20 0 -95 -2
-18 1 -36 5 -38 5 -3 4 -12 -2 -19 -7 -8 -7 -15 -1 -19 10 -7 9 -25 -3 -44 -4
-7 -4 -18 1 -25 8 -11 8 -20 0 -95 -2 -18 1 -36 5 -38 5 -3 4 -12 -2 -19 -7
-8 -7 -15 -1 -19 10 -7 9 -25 -3 -44 -4 -7 -4 -18 1 -25 8 -11 8 -20 0 -95 -2
-18 1 -36 5 -38 5 -3 4 -12 -2 -19 -7 -8 -7 -15 -1 -19 10 -7 9 -25 -3 -44 -4
-7 -4 -18 1 -25 8 -11 8 -20 0 -95 -2 -18 1 -36 5 -38 5 -3 4 -12 -2 -19 -7
-8 -7 -15 -1 -19 10 -7 9 -25 -3 -44 -4 -7 -4 -18 1 -25 8 -11 8 -20 0 -95 -2
-18 1 -36 5 -38 5 -3 4 -12 -2 -19 -7 -8 -7 -15 -1 -19 10 -7 9 -25 -3 -44 -4
-7 -4 -18 1 -25 8 -11 8 -20 0 -95 -2 -18 1 -36 5 -38 5 -3 4 -12 -2 -19 -7
-8 -7 -15 -1 -19 10 -7 9 -25 -3 -44 -4 -7 -4 -18 1 -25 8 -11 8 -20 0 -95 -2
-18 1 -36 5 -38 5 -3 4 -12 -2 -19 -7 -8 -7 -15 -1 -19 10 -7 9 -25 -3 -44 -4
-7 -4 -18 1 -25 8 -11 8 -20 0 -95 -2 -18 1 -36 5 -38 5 -3 4 -12 -2 -19 -7
-8 -7 -15 -1 -19 10 -7 9 -25 -3 -44 -4 -7 -4 -18 1 -25 8 -11 8 -20 0 -95 -2
-18 1 -36 5 -38 5 -3 4 -12 -2 -19 -7 -8 -7 -15 -1 -19 10 -7 9 -25 -3 -44 -4
-7 -4 -18 1 -25 8 -11 8 -20 0 -95 -2 -18 1 -36 5 -38 5 -3 4 -12 -2 -19 -7
-8 -7 -15 -1 -19 10 -7 9 -25 -3 -44 -4 -7 -4 -18 1 -25 8 -11 8 -20 0 -95 -2
-18 1 -36 5 -38 5 -3 4 -12 -2 -19 -7 -8 -7 -15 -1 -19 10 -7 9 -25 -3 -44 -4
-7 -4 -18 1 -25 8 -11 8 -20 0 -95 -2 -18 1 -36 5 -38 5 -3 4 -12 -2 -19 -7
-8 -7 -15 -1 -19 10 -7 9 -25 -3 -44 -4 -7 -4 -18 1 -25 8 -11 8 -20 0 -95 -2
-18 1 -36 5 -38 5 -3 4 -12 -2 -19 -7 -8 -7 -15 -1 -19 10 -7 9 -25 -3 -44 -4
-7 -4 -18 1 -25 8 -11 8 -20 0 -95 -2 -18 1 -36 5 -38 5 -3 4 -12 -2 -19 -7
-8 -7 -15 -1 -19 10 -7 9 -25 -3 -44 -4 -7 -4 -18 1 -25 8 -11 8 -20 0 -95 -2
-18 1 -36 5 -38 5 -3 4 -12 -2 -19 -7 -8 -7 -15 -1 -19 10 -7 9 -25 -3 -44 -4
-7 -4 -18 1 -25 8 -11 8 -20 0 -95 -2 -18 1 -36 5 -38 5 -3 4 -12 -2 -19 -7
-8 -7 -15 -1 -19 10 -7 9 -25 -3 -44 -4 -7 -4 -18 1 -25 8 -11 8 -20 0 -95 -2
-18 1 -36 5 -38 5 -3 4 -12 -2 -19 -7 -8 -7 -15 -1 -19 10 -7 9 -25 -3 -44 -4
-7 -4 -18 1 -25 8 -11 8 -20 0 -95 -2 -18 1 -36 5 -38 5 -3 4 -12 -2 -19 -7
-8 -7 -15 -1 -19 10 -7 9 -25 -3 -44 -4 -7 -4 -18 1 -25 8 -11 8 -20 0 -95 -2
-18 1 -36 5 -38 5 -3 4 -12 -2 -19 -7 -8 -7 -15 -1 -19 10 -7 9 -25 -3 -44 -4
-7 -4 -18 1 -25 8 -11 8 -20 0 -95 -2 -18 1 -36 5 -38 5 -3 4 -12 -2 -19 -7
-8 -7 -15 -1 -19 10 -7 9 -25 -2 -44 -5 -6 -5 -18 0 -24 10 -17 10 -49 0 -72
-7 -13 -6 -16 3 -11 9 6 9 3 1 -13 -7 -14 -8 -23 -1 -27 7 -4 7 -12 0 -24 -5
-10 -6 -22 -2 -25 12 -13 11 -66 -2 -59 -7 4 -6 1 2 -9 6 -8 11 -26 11 -39 -2
-28 11 -122 16 -128 2 -2 0 -13 -6 -24 -7 -12 -7 -17 -1 -13 5 3 12 -1 16 -9
3 -8 0 -15 -7 -15 -8 0 -7 -3 2 -9 17 -11 22 -49 9 -57 -5 -3 -1 -13 9 -21 10
-8 11 -11 3 -7 -12 7 -13 5 -3 -8 7 -8 10 -18 7 -21 -3 -3 -2 -11 2 -18 7 -12
13 -42 16 -76 1 -7 5 -13 9 -13 4 0 6 -8 4 -17 -1 -10 2 -23 7 -30 5 -7 7 -17
3 -23 -3 -5 -1 -10 4 -10 6 0 10 -3 10 -7 -4 -23 2 -43 10 -38 6 3 8 -4 6 -15
-2 -11 2 -20 8 -20 8 0 8 -3 -1 -9 -11 -7 -11 -9 2 -14 9 -4 13 -13 10 -20 -3
-8 1 -21 8 -28 7 -8 14 -22 16 -33 2 -10 8 -30 14 -45 6 -14 11 -29 10 -33 -1
-5 3 -8 9 -8 6 0 9 -7 5 -15 -3 -9 0 -15 10 -15 10 0 14 -6 10 -15 -3 -8 2
-21 10 -30 9 -8 13 -15 9 -15 -8 0 45 -94 59 -102 8 -6 7 -8 -2 -8 -10 0 -9
-4 3 -16 8 -9 22 -29 30 -45 9 -16 20 -29 26 -29 6 0 8 -4 5 -8 -7 -11 31 -72
45 -72 6 0 9 -5 7 -12 -4 -11 8 -30 40 -63 6 -8 12 -19 12 -25 0 -6 3 -9 8 -6
4 2 16 -13 26 -35 11 -21 25 -39 32 -39 7 0 15 -8 18 -17 3 -10 31 -44 61 -76
30 -31 55 -63 55 -69 0 -6 3 -8 6 -5 7 6 73 -62 74 -75 0 -5 5 -8 10 -8 6 0
21 -11 34 -25 13 -14 29 -25 36 -25 7 0 11 -3 7 -6 -8 -8 16 -33 26 -27 4 2
10 -3 13 -11 3 -9 12 -16 19 -16 7 0 16 -7 19 -16 4 -9 9 -14 13 -10 3 3 12
-3 20 -14 8 -11 19 -20 24 -20 5 0 21 -11 34 -24 13 -14 34 -27 45 -31 11 -3
20 -11 20 -16 0 -5 9 -9 21 -9 11 0 17 -4 14 -10 -3 -5 1 -10 9 -10 9 0 16 -5
16 -11 0 -5 4 -7 10 -4 5 3 10 2 10 -3 0 -5 14 -15 30 -22 17 -7 30 -17 30
-23 0 -6 3 -7 6 -4 4 4 19 -2 34 -13 16 -11 35 -20 44 -20 9 0 16 -3 16 -8 0
-4 9 -13 21 -20 14 -9 19 -10 14 -2 -6 9 -2 9 13 1 12 -6 24 -16 27 -21 4 -6
11 -8 16 -5 5 4 9 1 9 -5 0 -6 5 -8 10 -5 6 3 10 1 10 -5 0 -6 4 -9 9 -5 5 3
17 -2 25 -11 9 -8 16 -13 16 -9 0 3 13 -1 30 -10 16 -9 30 -13 30 -9 0 3 11
-1 25 -10 13 -9 33 -16 45 -16 11 0 20 -5 20 -11 0 -5 4 -8 8 -5 5 3 21 -2 37
-10 16 -8 35 -12 42 -10 7 3 13 1 13 -4 0 -5 6 -7 14 -4 8 3 17 1 21 -5 3 -6
19 -11 36 -11 16 0 29 -5 29 -12 0 -10 3 -9 9 1 6 9 10 10 12 2 3 -7 21 -13
42 -14 20 -1 37 -5 37 -8 0 -3 15 -6 34 -7 46 -2 60 -5 69 -17 4 -6 10 -5 16
4 5 8 10 9 12 3 2 -6 24 -11 49 -13 25 -1 51 -7 59 -13 11 -8 13 -8 7 2 -4 6
-2 12 3 12 6 0 11 -4 11 -10 0 -5 5 -10 11 -10 5 0 7 6 3 13 -6 9 -5 9 7 0 23
-19 5729 -19 5729 0 0 7 3 8 8 2 9 -13 46 -20 38 -7 -3 5 1 9 9 9 8 0 15 -5
15 -11 0 -6 7 -2 15 8 8 11 15 15 15 9 0 -6 8 -9 18 -7 9 2 34 5 55 8 20 2 45
10 54 17 14 12 16 12 9 0 -7 -10 -3 -11 15 -5 13 4 35 8 49 9 14 1 24 6 23 12
-1 6 9 8 23 5 13 -2 32 2 41 9 9 8 14 9 10 3 -4 -8 7 -7 34 2 22 8 44 12 49 9
4 -3 10 1 13 8 3 8 16 13 29 12 12 -1 32 3 43 9 11 6 25 11 30 11 6 1 20 6 33
13 12 7 22 10 22 6 0 -3 6 -2 13 3 6 6 25 13 40 17 15 4 25 11 22 15 -3 5 4 7
15 4 11 -3 20 0 20 6 0 6 3 10 8 9 14 -4 52 13 52 23 0 6 5 7 11 3 6 -3 24 3
40 15 15 11 35 21 44 21 8 0 15 5 15 11 0 5 5 7 10 4 6 -3 10 -1 10 5 0 6 4 9
9 6 4 -3 19 3 31 14 21 18 29 22 46 19 4 0 10 5 15 13 5 7 14 13 21 13 7 1 12
6 11 13 -2 6 3 9 11 6 7 -3 16 2 20 11 3 9 10 14 15 10 6 -3 14 3 20 12 5 10
12 17 15 16 12 -5 36 9 30 18 -3 5 2 9 11 9 9 0 23 6 30 13 36 32 50 42 57 42
5 0 8 4 7 9 0 9 33 31 63 42 10 3 15 10 13 15 -3 4 4 13 15 19 11 6 40 31 64
55 24 24 47 41 50 38 3 -4 6 -2 6 4 0 14 57 72 64 65 3 -3 6 2 6 11 0 10 8 17
18 17 14 0 15 2 2 10 -11 7 -12 10 -2 10 16 0 42 24 42 39 0 6 7 11 15 11 8 0
15 6 15 13 0 7 8 20 18 29 37 37 52 55 52 65 0 6 7 13 15 17 8 3 15 12 15 21
0 8 4 15 8 15 5 0 17 16 28 35 10 19 21 35 24 35 3 0 16 20 30 44 13 25 28 42
32 40 5 -3 8 -2 7 3 -4 16 13 63 21 58 6 -4 19 20 24 47 0 4 10 18 21 30 10
13 18 24 17 26 -7 8 0 32 7 28 5 -3 12 1 15 10 4 10 2 13 -7 8 -7 -4 -6 1 3
12 8 10 21 30 28 43 11 19 11 22 0 16 -7 -3 -4 1 6 9 11 9 16 16 12 16 -5 0
-1 11 8 25 9 14 14 30 11 35 -3 6 -1 10 4 10 6 0 11 7 11 15 0 9 7 27 16 40
13 20 14 25 3 25 -11 1 -11 3 1 13 9 7 15 21 15 32 0 11 4 23 10 27 5 4 10 17
10 30 1 13 7 33 14 46 6 12 9 22 5 22 -3 0 -2 6 3 13 6 6 9 20 8 29 -2 10 1
18 7 18 6 0 8 7 4 15 -3 8 -2 15 2 15 7 0 9 14 14 92 2 25 7 44 12 40 5 -3 7
5 4 16 -4 12 -3 22 2 22 4 0 7 16 6 35 -1 19 3 35 8 35 6 0 5 5 -1 11 -13 13
-5 42 9 33 6 -4 5 3 -1 15 -9 16 -9 21 0 21 9 0 9 3 0 14 -8 10 -9 16 -2 21
16 9 15 5755 0 5755 -8 0 -8 4 1 15 6 8 8 20 4 27 -10 16 -13 31 -16 80 -2 21
-6 38 -10 38 -4 0 -5 12 -2 26 3 14 1 23 -3 21 -5 -3 -8 7 -7 21 1 15 -4 33
-10 41 -9 12 -8 13 4 6 12 -7 13 -6 3 7 -7 8 -10 18 -6 21 3 4 2 7 -4 7 -6 0
-9 8 -6 19 3 10 0 22 -6 25 -6 4 -11 12 -11 17 0 6 5 7 11 3 6 -3 3 5 -6 19
-9 15 -14 31 -10 37 3 5 1 10 -4 10 -6 0 -11 5 -11 11 0 5 6 7 13 3 6 -4 5 1
-4 12 -9 10 -15 27 -14 36 2 10 -2 16 -8 15 -6 -1 -11 7 -12 18 -4 49 -6 56
-14 51 -5 -3 -9 0 -8 7 1 30 -4 48 -12 43 -4 -3 -7 6 -5 19 1 14 -2 25 -7 25
-6 0 -7 5 -4 10 3 6 1 10 -4 10 -6 0 -11 9 -11 19 0 11 -5 23 -10 26 -6 4 -8
10 -5 15 3 5 -2 16 -11 24 -8 9 -13 16 -9 16 3 0 -1 10 -10 23 -8 13 -12 27
-8 30 3 4 1 7 -6 7 -7 0 -9 5 -6 10 3 6 2 10 -3 10 -4 0 -14 16 -22 35 -8 19
-17 35 -20 35 -3 0 -12 16 -20 35 -8 19 -17 35 -22 35 -4 0 -8 6 -8 13 0 7 -9
23 -20 35 -12 12 -17 22 -13 22 4 0 3 4 -2 8 -6 4 -24 28 -40 54 -17 27 -33
48 -37 48 -5 0 -8 7 -8 15 0 7 -8 19 -17 24 -10 6 -14 11 -10 11 5 0 -9 17
-30 38 -21 21 -39 42 -41 47 -1 6 -31 41 -65 79 -34 37 -63 72 -65 77 -2 5 -7
9 -12 9 -5 0 -33 24 -63 53 -63 59 -107 97 -107 91 0 -2 -12 9 -27 24 -16 16
-36 31 -45 35 -10 3 -18 11 -18 17 0 6 -4 9 -8 6 -5 -3 -15 4 -22 15 -8 10
-20 19 -27 19 -7 0 -13 5 -13 10 0 6 -7 10 -15 10 -8 0 -15 5 -15 10 0 6 -7
10 -15 10 -9 0 -18 7 -21 15 -4 8 -9 13 -14 10 -4 -2 -16 4 -26 14 -11 9 -25
16 -32 13 -6 -2 -12 4 -12 14 0 9 -3 14 -7 11 -3 -4 -15 1 -26 10 -15 13 -19
14 -13 3 6 -12 5 -12 -6 1 -14 16 -48 33 -60 31 -5 -1 -8 3 -8 8 0 6 -9 10
-20 10 -11 0 -20 3 -20 8 0 8 -49 32 -67 32 -7 0 -13 5 -13 11 0 6 -7 9 -15 5
-8 -3 -19 2 -24 12 -6 9 -11 14 -11 9 0 -4 -13 -1 -30 8 -16 9 -30 13 -30 9 0
-3 -15 3 -34 14 -25 15 -37 17 -45 9 -8 -8 -11 -6 -11 7 0 13 -5 17 -20 13
-11 -3 -20 -1 -20 5 0 5 -4 6 -10 3 -5 -3 -10 -2 -10 2 0 8 -25 13 -72 16 -9
1 -15 4 -12 8 2 4 -11 9 -29 12 -65 10 -102 19 -112 26 -5 4 -25 7 -42 7 -18
-1 -33 2 -33 6 0 4 -7 4 -17 1 -12 -5 -14 -3 -8 8 7 11 6 12 -6 2 -12 -10 -18
-10 -27 -1 -9 9 -12 9 -12 -3 0 -11 -2 -11 -8 -1 -5 7 -32 13 -65 14 -31 1
-57 4 -57 8 0 4 -7 7 -15 7 -8 0 -15 -5 -15 -11 0 -5 -6 -2 -13 9 -8 11 -17
14 -20 8 -4 -6 -26 -9 -49 -7 -65 5 -299 7 -303 3 -2 -2 -110 -2 -240 1 -130
3 -238 3 -240 0 -2 -3 -110 -3 -240 0 -130 3 -238 3 -240 0 -2 -3 -110 -3
-240 0 -130 3 -238 3 -240 0 -2 -3 -110 -3 -240 0 -130 3 -238 3 -240 0 -2 -3
-110 -3 -240 0 -130 3 -238 3 -240 0 -2 -3 -110 -3 -240 0 -130 3 -238 3 -240
0 -2 -3 -110 -3 -240 0 -130 3 -238 3 -240 0 -2 -3 -110 -3 -240 0 -130 3
-238 3 -240 0 -2 -3 -110 -3 -240 0 -130 3 -238 3 -240 0 -2 -3 -110 -3 -240
0 -130 3 -238 4 -240 2z m-825 -6852 c11 -5 29 -15 40 -20 15 -8 20 -7 20 2 0
10 2 10 9 0 4 -7 18 -14 29 -15 12 -1 22 -5 22 -9 0 -4 14 -8 30 -8 17 0 30
-4 30 -8 0 -5 6 -9 13 -10 38 -3 53 -9 65 -22 12 -13 13 -13 6 0 -6 13 -5 13
7 1 11 -10 11 -15 2 -18 -7 -3 -13 -13 -13 -24 0 -10 -4 -19 -10 -19 -5 0 -9
-3 -9 -7 1 -5 0 -11 -1 -15 -1 -5 -3 -11 -5 -15 -14 -52 -18 -62 -25 -58 -4 2
-6 -6 -5 -20 2 -13 -3 -26 -10 -29 -7 -2 -12 -13 -10 -23 1 -10 -4 -26 -13
-35 -8 -10 -12 -18 -8 -18 4 0 1 -10 -6 -22 -7 -13 -13 -26 -14 -30 -1 -5 -3
-10 -4 -13 -1 -3 -3 -9 -4 -14 0 -5 -4 -13 -8 -17 -5 -4 -8 -16 -8 -26 0 -10
-4 -18 -10 -18 -6 0 -9 -3 -9 -7 4 -25 -2 -43 -13 -37 -7 4 -8 3 -4 -4 4 -6 2
-21 -4 -32 -6 -12 -13 -31 -15 -42 -3 -12 -8 -24 -13 -27 -5 -3 -8 -16 -7 -28
1 -12 -2 -20 -7 -17 -8 5 -11 -5 -11 -38 0 -10 -3 -15 -8 -12 -5 2 -11 -8 -15
-23 -4 -15 -12 -34 -18 -42 -9 -12 -8 -13 4 -6 11 6 10 3 -2 -11 -10 -11 -19
-31 -21 -44 -2 -13 -9 -26 -15 -28 -6 -2 -9 -9 -6 -16 3 -8 -1 -20 -9 -27 -7
-8 -12 -20 -9 -27 2 -6 -1 -12 -7 -12 -6 0 -8 -7 -4 -15 3 -9 -3 -25 -12 -35
-10 -11 -15 -20 -11 -20 4 0 4 -6 -1 -12 -4 -7 -8 -19 -10 -27 -1 -8 -7 -17
-13 -21 -7 -4 -11 -10 -10 -14 1 -4 0 -16 -3 -27 -3 -10 -6 -23 -7 -27 -1 -4
-9 -16 -18 -26 -10 -11 -11 -16 -3 -11 9 5 8 -1 -4 -18 -9 -15 -14 -31 -10
-37 3 -5 1 -10 -4 -10 -6 0 -11 -9 -11 -20 0 -11 -4 -20 -10 -20 -5 0 -10 -9
-10 -20 0 -11 -4 -28 -9 -38 -5 -9 -13 -28 -18 -42 -33 -83 -53 -130 -65 -153
-5 -10 -6 -22 -3 -27 4 -6 1 -10 -5 -10 -6 0 -8 -4 -5 -10 3 -5 2 -10 -3 -10
-5 0 -12 -10 -15 -22 -7 -34 -41 -122 -49 -128 -4 -3 -9 -19 -12 -35 -3 -16
-10 -31 -16 -33 -5 -2 -8 -8 -4 -13 3 -5 -2 -18 -10 -30 -8 -12 -12 -27 -10
-33 3 -7 -6 -18 -20 -24 -15 -7 -26 -7 -28 -1 -2 5 -17 12 -33 15 -17 2 -37 7
-45 11 -21 9 -31 11 -70 21 -27 6 -34 13 -32 28 2 10 7 21 10 24 4 3 7 10 8
15 2 27 18 76 25 81 5 3 9 16 9 30 0 13 5 24 11 24 5 0 8 4 4 9 -3 5 -1 12 4
16 5 3 8 14 6 25 -3 13 0 18 7 14 7 -5 9 0 5 15 -3 13 -3 20 0 17 6 -6 45 98
46 122 0 6 4 12 9 12 5 0 6 5 3 10 -3 6 -1 10 5 10 6 0 8 4 5 10 -3 5 3 28 14
50 10 22 14 37 8 34 -8 -5 -7 -2 1 7 6 7 12 21 12 31 0 10 5 18 10 18 6 0 10
11 10 25 0 14 4 25 9 25 6 0 8 9 6 20 -2 11 1 20 6 20 6 0 8 4 4 9 -3 5 -1 12
5 16 5 3 10 16 10 29 0 12 4 26 9 31 5 6 11 19 13 30 1 11 6 23 10 26 5 3 9
17 10 32 1 15 6 27 11 27 5 0 7 9 4 20 -3 10 -1 20 4 22 5 2 11 14 14 27 2 12
10 30 17 39 11 13 11 14 -2 7 -12 -7 -12 -5 1 11 9 10 15 27 14 37 -2 9 2 17
8 17 5 0 7 3 4 7 -4 3 1 15 10 26 13 15 14 18 3 12 -12 -6 -13 -5 -2 6 6 7 12
23 12 36 0 13 4 23 8 23 5 0 9 6 10 13 2 21 7 42 15 54 4 6 8 23 9 37 1 14 6
26 10 26 4 0 8 14 8 30 0 17 4 30 8 30 5 0 9 6 10 13 1 14 10 51 12 55 2 1 4
7 5 12 1 6 4 12 5 15 1 3 4 10 5 15 1 6 4 11 5 13 2 2 8 35 12 65 1 6 5 12 10
12 4 0 8 11 8 25 0 14 5 25 11 25 5 0 8 4 5 9 -3 5 1 27 8 49 8 22 12 43 9 46
-4 3 -2 6 4 6 6 0 10 10 9 23 0 12 4 21 10 20 7 -1 9 8 6 22 -3 16 0 25 8 25
10 0 10 3 1 14 -8 9 -8 15 -2 18 6 1 12 13 14 26 2 13 10 28 18 33 17 11 15
11 39 -1z m710 2 c0 -4 9 -9 20 -10 44 -4 50 -6 50 -14 0 -5 4 -7 9 -3 5 3 12
1 16 -4 3 -6 12 -8 20 -4 8 3 15 1 15 -4 0 -5 8 -9 18 -10 29 -2 47 -8 53 -16
3 -4 19 -9 35 -10 38 -3 63 -25 43 -38 -8 -5 -10 -9 -5 -9 4 0 1 -12 -9 -26
-9 -15 -12 -23 -6 -20 7 5 9 1 5 -8 -3 -9 -10 -16 -15 -16 -5 0 -8 -3 -7 -7 3
-15 -14 -63 -23 -63 -4 0 -6 -9 -4 -20 2 -11 0 -20 -6 -20 -5 0 -9 -6 -9 -13
0 -8 -11 -42 -25 -76 -14 -34 -23 -66 -20 -71 3 -6 0 -7 -8 -4 -9 3 -13 -2
-12 -18 1 -13 -3 -26 -8 -30 -6 -3 -11 -12 -13 -20 -1 -7 -10 -31 -20 -53 -9
-22 -17 -48 -17 -57 0 -10 -3 -18 -8 -18 -4 0 -11 -15 -14 -32 -4 -18 -12 -38
-17 -45 -5 -7 -6 -18 -2 -24 4 -8 3 -9 -4 -5 -11 7 -13 3 -16 -36 -1 -7 -5
-16 -11 -20 -5 -4 -10 -11 -11 -15 -2 -26 -17 -63 -25 -63 -5 0 -9 -5 -9 -11
0 -5 6 -7 13 -3 6 4 4 -2 -6 -14 -11 -11 -16 -26 -12 -31 3 -6 2 -11 -4 -11
-5 0 -12 -13 -16 -30 -4 -16 -10 -30 -14 -30 -4 0 -7 -10 -8 -22 -1 -11 -7
-24 -13 -28 -7 -4 -11 -9 -9 -11 1 -2 0 -15 -4 -29 -3 -14 -6 -25 -5 -25 1 0
-5 -11 -13 -25 -8 -14 -14 -32 -14 -40 -1 -8 -6 -14 -11 -13 -7 1 -9 -8 -6
-22 3 -19 0 -25 -12 -25 -10 0 -15 -4 -11 -10 7 -12 -5 -61 -14 -56 -4 3 -8
-7 -9 -22 -1 -14 -9 -36 -17 -49 -9 -13 -13 -28 -10 -33 3 -6 2 -10 -3 -10 -5
0 -15 -20 -22 -45 -7 -24 -17 -42 -22 -39 -5 3 -6 -8 -3 -26 4 -20 2 -29 -5
-25 -9 6 -14 -7 -11 -27 0 -5 -4 -8 -11 -8 -6 0 -9 -3 -5 -6 3 -4 0 -19 -9
-35 -8 -16 -12 -29 -8 -29 4 0 1 -7 -6 -15 -7 -8 -9 -15 -4 -15 5 0 3 -4 -4
-9 -7 -4 -14 -18 -15 -29 -1 -12 -5 -22 -10 -22 -4 0 -5 -4 -2 -10 3 -5 2 -10
-4 -10 -6 0 -8 -7 -5 -15 4 -8 2 -15 -3 -15 -6 0 -16 -19 -22 -42 -20 -65 -36
-91 -59 -93 -12 -1 -20 3 -19 9 1 5 -5 11 -13 12 -8 0 -17 2 -20 3 -17 8 -95
24 -113 23 -9 0 -15 3 -12 9 4 5 1 9 -5 9 -6 0 -8 10 -4 27 4 15 7 33 7 40 0
7 4 10 9 7 4 -3 8 6 8 20 0 14 4 26 8 26 4 0 9 12 10 28 1 15 7 29 12 30 6 2
10 17 10 33 0 16 5 29 10 29 6 0 10 8 10 18 0 10 6 24 13 31 10 11 9 12 -2 6
-9 -5 -7 1 4 19 10 14 14 26 10 26 -4 0 -2 6 4 13 6 8 12 24 15 38 2 13 8 23
13 22 5 -1 8 11 7 25 0 15 3 30 8 33 5 3 10 19 11 36 1 17 5 29 10 26 4 -2 7
1 7 6 0 18 0 19 16 56 8 20 12 40 9 44 -3 5 1 11 9 14 8 3 13 14 12 24 -2 10
1 21 6 24 5 3 10 18 12 32 1 14 8 32 14 40 7 8 9 17 5 21 -4 4 -2 10 4 14 6 4
14 21 16 37 2 17 9 29 14 28 6 -1 9 9 7 22 -1 14 2 27 7 31 5 3 7 10 4 15 -4
5 -1 9 6 9 7 0 10 3 6 6 -3 4 0 18 7 33 7 14 12 36 11 49 -1 12 4 22 11 22 7
0 11 8 9 20 -2 11 1 20 6 20 6 0 7 5 4 10 -3 6 -2 10 2 10 5 0 10 9 11 20 4
44 6 50 15 50 5 0 7 7 3 15 -3 8 -2 15 3 15 4 0 8 6 9 13 1 23 11 56 22 77 6
11 8 25 5 30 -3 5 -1 11 4 14 4 3 11 19 15 36 4 22 10 29 18 24 10 -6 10 -4 0
8 -9 11 -10 18 -2 23 6 3 8 10 5 15 -3 5 -1 11 5 15 6 4 8 11 5 16 -4 5 -2 9
2 9 5 0 10 9 11 20 4 43 6 50 13 50 4 0 6 11 5 25 -2 13 0 22 4 20 7 -4 17 30
22 73 1 6 4 12 8 12 3 0 7 9 8 20 4 43 6 50 13 50 4 0 6 9 4 20 -2 11 0 20 4
20 4 0 8 6 9 13 4 44 22 87 38 87 8 0 14 -4 14 -8z"/>
</g>
</svg>
